<svg width="25" height="25" viewBox="0 0 25 25" fill="none" xmlns="http://www.w3.org/2000/svg">
<g clip-path="url(#clip0_13_101)">
<path d="M24.3602 24.4734H19.2814C18.9222 24.4734 18.6319 24.1831 18.6319 23.8238V15.6447C18.6319 12.8396 17.185 12.8396 16.7076 12.8396C15.4232 12.8396 14.8769 13.8534 14.6998 14.2914C14.6161 14.4883 14.5767 14.8229 14.5767 15.2904V23.8288C14.5767 24.1881 14.2864 24.4784 13.9272 24.4784H8.84349C8.67125 24.4784 8.50392 24.4095 8.38089 24.2865C8.25787 24.1635 8.18898 23.9961 8.19388 23.8239C8.19388 23.6861 8.26278 9.97054 8.19388 8.56797C8.18404 8.3908 8.24801 8.21856 8.37106 8.09061C8.4941 7.96265 8.66141 7.88882 8.84347 7.88882H13.9272C14.2864 7.88882 14.5767 8.17916 14.5767 8.53841V8.92227C15.433 8.15948 16.6683 7.52955 18.5088 7.52955C22.5787 7.52955 25.0098 10.3445 25.0098 15.0591V23.8238C25.0098 24.1831 24.7194 24.4734 24.3602 24.4734ZM19.9311 23.1743L23.7155 23.1742V15.059C23.7155 11.0974 21.8208 8.82869 18.5137 8.82869C16.3041 8.82869 15.2313 9.93106 14.5571 10.9399C14.4783 11.2057 14.2273 11.4025 13.9321 11.4025H13.8976C13.6614 11.4025 13.4449 11.2746 13.3317 11.0679C13.2431 10.9055 13.2234 10.7185 13.2825 10.5462V9.18306H9.50787C9.54232 11.8947 9.50787 20.6693 9.49803 23.1693H13.2775V15.2854C13.2775 14.6309 13.3464 14.1585 13.4941 13.7992C14.0649 12.3868 15.2657 11.5355 16.7027 11.5355C18.75 11.5355 19.9261 13.0316 19.9261 15.6398V23.1742H19.9311L19.9311 23.1743ZM6.03346 24.4733H0.949798C0.590545 24.4733 0.300213 24.183 0.300213 23.8237V8.53836C0.300213 8.17911 0.590545 7.88875 0.949798 7.88875H6.03346C6.39271 7.88875 6.68304 8.17911 6.68304 8.53834V23.8238C6.68304 24.183 6.39271 24.4734 6.03346 24.4734V24.4733ZM1.59943 23.1742H5.38385V9.18792H1.59946V23.1742L1.59943 23.1742ZM3.49408 7.10132L3.45961 7.1013C1.45666 7.1013 -3.05176e-05 5.7135 -3.05176e-05 3.80405C-3.05176e-05 1.89954 1.48127 0.511719 3.52851 0.511719C5.5413 0.511719 6.97833 1.86013 7.01771 3.78928C7.01771 5.7135 5.53641 7.1013 3.49408 7.1013V7.10132ZM3.52851 1.81587C2.19484 1.81587 1.29919 2.61804 1.29919 3.80901C1.29919 4.98025 2.18503 5.8021 3.45963 5.8021H3.49406C4.82282 5.8021 5.71847 4.99993 5.71847 3.80899C5.69386 2.60327 4.83266 1.81587 3.52851 1.81587Z" fill="#7D0202"/>
</g>
<defs>
<clipPath id="clip0_13_101">
<rect width="25" height="25" fill="white"/>
</clipPath>
</defs>
</svg>
