<svg width="15" height="15" viewBox="0 0 15 15" fill="none" xmlns="http://www.w3.org/2000/svg">
<path d="M5.5 1.07809e-08C6.5239 -6.40861e-05 7.52748 0.285684 8.39777 0.825075C9.26807 1.36447 9.97052 2.13608 10.426 3.05306C10.8816 3.97004 11.0721 4.99597 10.9762 6.01536C10.8802 7.03475 10.5016 8.00712 9.88301 8.823L14.03 12.97C14.163 13.104 14.2405 13.2832 14.2471 13.4719C14.2538 13.6605 14.189 13.8447 14.0658 13.9878C13.9426 14.1308 13.77 14.2221 13.5825 14.2434C13.3949 14.2648 13.2062 14.2147 13.054 14.103L12.97 14.03L8.823 9.883C8.12757 10.4102 7.31668 10.7643 6.45733 10.9161C5.59798 11.0679 4.71484 11.0131 3.88087 10.7561C3.04691 10.4992 2.28606 10.0474 1.66119 9.43827C1.03632 8.82911 0.565372 8.08001 0.287255 7.25286C0.00913709 6.4257 -0.0681658 5.54424 0.0617331 4.6813C0.191632 3.81837 0.525004 2.99872 1.0343 2.2901C1.5436 1.58148 2.21421 1.00421 2.99072 0.606002C3.76723 0.207794 4.62735 7.20708e-05 5.5 1.07809e-08ZM5.5 1.5C4.43914 1.5 3.42172 1.92143 2.67158 2.67157C1.92143 3.42172 1.5 4.43913 1.5 5.5C1.5 6.56087 1.92143 7.57828 2.67158 8.32843C3.42172 9.07857 4.43914 9.5 5.5 9.5C6.56087 9.5 7.57829 9.07857 8.32843 8.32843C9.07858 7.57828 9.5 6.56087 9.5 5.5C9.5 4.43913 9.07858 3.42172 8.32843 2.67157C7.57829 1.92143 6.56087 1.5 5.5 1.5Z" fill="#863503"/>
</svg>
