<svg width="25" height="25" viewBox="0 0 25 25" fill="none" xmlns="http://www.w3.org/2000/svg">
<g clip-path="url(#clip0_13_89)">
<path d="M22.9672 4.63125C22.2898 4.14375 20.4023 3.49609 12.4934 3.49609C4.01797 3.49609 2.76055 4.23984 2.35701 4.4832C0.209356 5.77341 0.00545042 11.4855 -0.0132751 12.6437C0.0125061 14.1735 0.259772 19.2629 2.35547 20.5219C2.75823 20.7644 4.00859 21.5039 12.4934 21.5039C20.4074 21.5039 22.2926 20.8594 22.9672 20.3738C24.7976 19.057 25.0082 14.5223 25.0133 12.6238C25.0086 11.0973 24.8484 5.98635 22.9672 4.63127L22.9672 4.63125ZM22.0547 19.1059C21.7824 19.3019 20.2191 19.9414 12.4933 19.9414C5.02417 19.9414 3.45698 19.3617 3.16089 19.1832C2.40699 18.7308 1.61128 16.3297 1.54881 12.6394C1.61053 8.9574 2.41717 6.26951 3.1625 5.82263C3.45938 5.64333 5.0324 5.05896 12.4933 5.05896C20.2128 5.05896 21.7804 5.70273 22.0546 5.89961C22.7238 6.38164 23.4402 8.91914 23.4507 12.6289C23.4402 16.3969 22.7191 18.6277 22.0546 19.1059H22.0547ZM17.5882 11.8855L10.5586 7.5718C10.4401 7.50034 10.3048 7.46164 10.1664 7.45965C10.028 7.45766 9.8916 7.49245 9.77109 7.56047C9.65047 7.6285 9.55009 7.72736 9.48022 7.84692C9.41035 7.96648 9.3735 8.10246 9.37343 8.24094V16.8698C9.37354 17.077 9.45588 17.2757 9.60237 17.4222C9.74886 17.5686 9.94751 17.651 10.1547 17.6511C10.2969 17.6511 10.4364 17.6124 10.5582 17.539L17.5879 13.2238C17.8223 13.082 17.9656 12.8285 17.9656 12.5546C17.9656 12.2808 17.8226 12.0265 17.5883 11.8855H17.5882ZM10.9363 15.4859V9.62412L15.6727 12.5546L10.9363 15.4859Z" fill="#7D0202"/>
</g>
<defs>
<clipPath id="clip0_13_89">
<rect width="25" height="25" fill="white"/>
</clipPath>
</defs>
</svg>
